<?xml version="1.0" encoding="utf-8"?>
<!-- Generator: Adobe Illustrator 24.1.1, SVG Export Plug-In . SVG Version: 6.00 Build 0)  -->
<svg version="1.1" id="Layer_2" xmlns="http://www.w3.org/2000/svg" xmlns:xlink="http://www.w3.org/1999/xlink" x="0px" y="0px"
	 viewBox="0 0 1280 504" style="enable-background:new 0 0 1280 504;" xml:space="preserve">
<g>
	<path d="M197.56,98.72c20.88,0,27.44,14.95,32.92,29.91c2.33,6.34,56.56,154.82,58.17,159.27c0.45,1.24,0.16,3.28-1.76,4.02
		c-1.92,0.74-30.1,11.68-31.65,12.27c-1.56,0.59-3.31-0.28-3.89-1.82c-0.58-1.54-12.26-33.91-13.57-37.54c-3.88,0-76.46,0-80.34,0
		c-1.33,3.63-13.12,36.05-13.66,37.54c-0.54,1.48-2.23,2.48-3.88,1.82c-1.65-0.65-29.96-11.62-31.63-12.27
		c-1.62-0.61-2.36-2.46-1.79-4.02c1.99-5.57,55.39-151.65,58.12-159.27C169.89,113.9,176.69,98.72,197.56,98.72z M102.19,364.39
		c-1.69,0-3.04,1.39-3.04,3.11v34.7c0,1.74,1.36,3.12,3.04,3.12h190.75c1.67,0,3.01-1.38,3.01-3.12v-34.7
		c0-1.72-1.34-3.11-3.01-3.11H102.19 M197.4,147.21l-27.17,81.55H225l-27.26-81.55H197.4z"/>
	<path d="M906.27,266.78c0,9.23-5.11,15.31-14.51,15.31c-3.73,0-6.78,0.01-11.64-1.31v-27.94c2.14-0.35,6.58-1.03,11.64-0.86
		C901.31,252.34,906.27,256.81,906.27,266.78z M925.59,265.41c0-17.11-10.03-28.91-31.1-28.91c-5.18,0-8.78,0.49-14.37,1.82
		l-0.04-24.46c3.47-0.49,9.42-0.93,15.97-0.93c6.19,0,14.04,0.34,20.93,1.18l0.49-14.28c-7.83-1.75-19.18-2.83-28-2.83
		c-8.68,0-22.18,2.17-28.6,3.92l-0.01,90.89c10.02,3.67,19.79,5.34,29.84,5.34C913.66,297.15,925.59,284.96,925.59,265.41z"/>
	<path d="M707.95,260.45c0,12.7-5.06,20.89-13.39,20.89c-3.5,0-5.35-0.18-9.3-1.47v-38.15c4.34-2.07,6.67-2.04,10.17-2.04
		C703.78,239.68,707.95,246.56,707.95,260.45 M644.48,260.88c0-13.88,4.18-21.2,12.51-21.2c3.51,0,5.85-0.03,10.18,2.04v38.15
		c-3.93,1.29-5.8,1.47-9.31,1.47C648.37,281.34,644.48,273.58,644.48,260.88 M685.25,318.03v-24.82c2.3,1.36,6.89,3.36,14.62,3.36
		c15.38,0,26.71-12.77,26.71-36.12c0-25.17-11.25-35.93-29.76-35.93c-4.7,0-7.76,0.48-11.58,2.29v-29.66h-18.08v29.66
		c-3.8-1.81-6.88-2.29-11.57-2.29c-18.5,0-29.77,11.21-29.77,36.36c0,23.36,10.18,35.69,26.69,35.69c7.77,0,12.35-2,14.65-3.36
		v24.82H685.25"/>
	<path d="M530.84,295.41V241.1c-4.8-0.71-5.61-0.87-9.47-0.87c-3.84,0-4.79,0.16-9.61,0.87v25.08c0,20.17-5.49,26.51-20.07,30.61
		l-4.95-10.62c3.67-2.43,5.01-5.58,6.01-8.21c1.01-2.98,1.17-5.77,1.17-15.04v-34.09c9.97-2.97,17.45-4.25,27.45-4.25
		c10,0,17.67,1.28,27.64,4.25v66.58H530.84z"/>
	<path d="M770.94,280.8c-3.99,1.38-6.62,1.69-9.77,1.69c-6.5,0-10.19-2.56-10.19-9.22c0-6.93,4.66-9.28,13.66-9.28
		c2.16,0,4.34,0.32,5.36,0.68v4.97C770.01,275.02,770.27,278.52,770.94,280.8z M794.01,288.76c-4.78-7.29-6.03-11.58-6.03-20.75
		V249.4c0-10.05-1.17-13.75-3.83-17.43c-3.68-5.18-9.83-7.4-21.16-7.4c-8,0-15.86,0.86-23.36,2.77l2.69,13.33
		c5.11-0.71,10.43-1.33,14.28-1.33c12.02,0,13.41,1.75,13.41,10.75v3.38c-2.67-0.72-5.68-1.24-9.18-1.24
		c-18.16,0-27.72,8.86-27.72,23.47c0,13.75,10.2,21.23,22.73,21.23c4.65,0,9.49-0.86,13.34-2.41c2.3-1.01,3.32-1.59,6.32-3.57
		c1.82,2.66,5.43,5.35,6.91,5.82L794.01,288.76z"/>
	<path d="M969.77,280.8c-3.99,1.38-6.62,1.69-9.79,1.69c-6.51,0-10.17-2.56-10.17-9.22c0-6.93,4.66-9.28,13.65-9.28
		c2.18,0,4.35,0.32,5.35,0.68v4.97C968.82,275.02,969.1,278.52,969.77,280.8z M992.84,288.76c-4.81-7.29-6.06-11.58-6.06-20.75
		V249.4c0-10.05-1.14-13.75-3.82-17.43c-3.68-5.18-9.82-7.4-21.15-7.4c-8.02,0-15.85,0.86-23.37,2.77l2.69,13.33
		c5.09-0.71,10.44-1.33,14.28-1.33c12,0,13.39,1.75,13.39,10.75v3.38c-2.67-0.72-5.67-1.24-9.17-1.24
		c-18.16,0-27.71,8.86-27.71,23.47c0,13.75,10.22,21.23,22.71,21.23c4.66,0,9.51-0.86,13.34-2.41c2.32-1.01,3.32-1.59,6.31-3.57
		c1.82,2.66,5.46,5.35,6.93,5.82L992.84,288.76z"/>
	<path d="M600.05,271.48c0,6.82-2.4,11.49-11.12,11.49c-2.94,0-4.14,0-7.96-1.07v-19.93c4.73-0.91,5.15-1.07,7.96-1.07
		C597.26,260.9,600.05,264.95,600.05,271.48z M562.83,225.68l-0.08,66.09c8.61,3.64,18.07,5.26,26.48,5.26
		c19.28,0,29.6-9.96,29.6-26.39c0-14.87-9.13-24.07-26.21-24.07c-4.34,0-6.88,0.57-11.64,1.73v-22.63H562.83z"/>
	<polygon points="1040.46,295.41 1040.46,267.18 1019.91,267.18 1019.91,295.41 1001.78,295.41 1001.78,226.31 1019.91,226.31 
		1019.91,252.43 1040.46,252.43 1040.46,226.31 1058.63,226.31 1058.63,295.41 	"/>
	<path d="M1112.8,295.41c0,0-6.13-14.98-9.36-21.53c-2.75-5.47-3.65-6.76-8.84-6.76l-2.47,0.04v28.24h-18.23v-69.1h18.23v26.11h3.04
		c4.7,0,5.56-1.62,7.31-5.27c1.7-3.56,3.05-6.37,4.75-9.86c1.6-3.27,2.9-6.05,4.77-7.93c2.41-2.45,4.96-3.84,9.87-4.13
		c2.97-0.18,5.85-0.16,8.46,0.18l-0.92,12.58c0,0-2.43-0.61-4.22,1.01c-1.82,1.6-2.73,3.04-5.84,9.8c-3.21,6.9-6.2,9.18-9.94,9.88
		v0.32c5.61,1.34,8.11,5.08,10.86,10.51c2.42,4.78,12.33,25.93,12.33,25.93H1112.8z"/>
	<path d="M460.74,295.41h20.92l-31.59-96.59c-3.32-1.12-7.48-1.82-11.86-1.82c-4.79,0-6.5,0.64-10.26,1.82l-33.51,96.59h20.04
		c0,0,2.69-8.46,5.97-18.97h34.65C458.23,286.94,460.74,295.41,460.74,295.41z M425.55,260.25c0,0,5.78-19.36,6.66-22.38
		c2.34-7.88,5.84-20.28,5.84-20.28h0.57c0,0,3.22,12.86,5.32,20.17c0.82,2.84,6.34,22.5,6.34,22.5H425.55z"/>
	<path d="M836.01,260.85c0,6.43-5.18,11.6-11.57,11.6c-6.39,0-11.59-5.17-11.59-11.6c0-6.37,5.2-11.59,11.59-11.59
		C830.83,249.26,836.01,254.48,836.01,260.85z"/>
</g>
</svg>
