<?xml version="1.0" encoding="utf-8"?>
<!-- Generator: Adobe Illustrator 24.1.1, SVG Export Plug-In . SVG Version: 6.00 Build 0)  -->
<svg version="1.1" xmlns="http://www.w3.org/2000/svg" xmlns:xlink="http://www.w3.org/1999/xlink" x="0px" y="0px"
	 viewBox="0 0 384.8 72.3" style="enable-background:new 0 0 384.8 72.3;" xml:space="preserve">
<style type="text/css">
	.st0{display:none;}
</style>
<g id="Service_Name">
	<g>
		<path d="M278.2,18.5h12.1c7.3,0,12.8,5.6,12.8,12.6c0,7-5.4,12.7-12.8,12.7h-5.5v10.1h-6.6V18.5z M284.7,24.6v13h5
			c3.9,0,6.6-2.9,6.6-6.5c0-3.6-2.7-6.5-6.6-6.5H284.7z"/>
		<path d="M304.8,39.7c0-9.4,6.9-14.8,14.1-14.8c3.7,0,7.1,1.6,9.1,4v-3.4h6.5v28.4H328v-3.7c-2.1,2.6-5.5,4.3-9.2,4.3
			C311.9,54.4,304.8,49,304.8,39.7z M328.3,39.6c0-4.8-3.6-8.7-8.5-8.7s-8.6,3.8-8.6,8.7c0,4.9,3.7,8.8,8.6,8.8
			S328.3,44.5,328.3,39.6z"/>
		<path d="M348.8,52.5l-11.6-27h7l7.9,19.1l7.5-19.1h6.9L349.4,67h-6.6L348.8,52.5z"/>
	</g>
</g>
<g id="Samsung_Lettermark">
	<path d="M27.2,28c-0.2-0.7-0.1-1.4,0-1.7c0.2-1.1,0.9-2.2,3-2.2c1.9,0,3.1,1.2,3.1,3c0,0.6,0,2,0,2h8.2v-2.3
		c0-7.2-6.5-8.3-11.2-8.3c-5.9,0-10.7,1.9-11.6,7.4c-0.2,1.5-0.3,2.8,0.1,4.5c1.4,6.8,13.2,8.7,14.9,13c0.3,0.8,0.2,1.8,0.1,2.4
		c-0.3,1.1-1,2.2-3.2,2.2c-2.1,0-3.3-1.2-3.3-3l0-3.2h-8.9v2.5c0,7.4,5.8,9.6,12,9.6c6,0,10.9-2,11.7-7.6c0.4-2.9,0.1-4.7,0-5.4
		C40.7,33.9,28.2,31.9,27.2,28z M134.8,28.1c-0.1-0.7-0.1-1.3,0-1.7c0.2-1.1,0.9-2.2,3-2.2c1.9,0,3,1.2,3,3c0,0.6,0,2,0,2h8.2v-2.3
		c0-7.1-6.4-8.2-11-8.2c-5.8,0-10.6,1.9-11.5,7.3c-0.2,1.5-0.3,2.8,0.1,4.4c1.4,6.7,13.1,8.6,14.7,12.9c0.3,0.8,0.2,1.8,0.1,2.4
		c-0.3,1.1-1,2.2-3.2,2.2c-2.1,0-3.3-1.2-3.3-3l0-3.2h-8.8v2.5c0,7.3,5.7,9.5,11.9,9.5c5.9,0,10.8-2,11.6-7.5
		c0.4-2.8,0.1-4.7-0.1-5.4C148.1,34,135.7,31.9,134.8,28.1z M209.9,46.1l-7.8-26.6h-12.3v32.7h8.1l-0.5-27.5l8.4,27.5h11.8V19.5
		h-8.2L209.9,46.1z M53.8,19.5l-6.1,33.1h8.9l4.6-30.6l4.5,30.6h8.9l-6.1-33.1H53.8z M103.8,19.5l-4.2,25.9l-4.2-25.9H82l-0.7,33.1
		h8.3l0.2-30.6l5.7,30.6h8.4l5.7-30.6l0.2,30.6h8.3l-0.7-33.1H103.8z M180.6,19.5h-8.4v24.5c0,0.4,0,0.9-0.1,1.3
		c-0.2,0.8-0.9,2.4-3.2,2.4c-2.3,0-3-1.6-3.2-2.4c-0.1-0.4-0.1-0.8-0.1-1.3V19.5h-8.4v23.7c0,0.6,0,1.9,0.1,2.2
		c0.6,6.2,5.4,8.2,11.5,8.2c6.1,0,11-2,11.5-8.2c0-0.3,0.1-1.6,0.1-2.2V19.5z M238.1,34v4.8h3.4v4.8c0,0.4,0,0.9-0.1,1.3
		c-0.1,0.9-1,2.4-3.4,2.4c-2.4,0-3.2-1.5-3.4-2.4c-0.1-0.4-0.1-0.8-0.1-1.3V28.5c0-0.5,0-1.1,0.1-1.6c0.2-0.8,0.9-2.4,3.3-2.4
		c2.5,0,3.2,1.7,3.3,2.4c0.1,0.5,0.1,1.3,0.1,1.3V30h8.3v-1.1c0,0,0-1.1-0.1-2.2c-0.6-6.2-5.7-8.2-11.6-8.2c-5.9,0-10.9,2-11.6,8.2
		c-0.1,0.6-0.2,1.6-0.2,2.2v13.9c0,0.6,0,1.1,0.1,2.2c0.5,6,5.8,8.2,11.6,8.2c5.9,0,11.1-2.1,11.6-8.2c0.1-1.1,0.1-1.6,0.1-2.2V34
		H238.1z"/>
</g>
<g id="Guides" class="st0">
</g>
</svg>
