<?xml version="1.0" encoding="utf-8"?>
<!-- Generator: Adobe Illustrator 24.1.1, SVG Export Plug-In . SVG Version: 6.00 Build 0)  -->
<svg version="1.1" id="Layer_1" xmlns="http://www.w3.org/2000/svg" xmlns:xlink="http://www.w3.org/1999/xlink" x="0px" y="0px"
	 viewBox="0 0 198 198" style="enable-background:new 0 0 198 198;" xml:space="preserve">
<style type="text/css">
	.st0{fill:#FFFFFF;}
</style>
<rect x="0" class="st0" width="198" height="198"/>
<rect x="0" y="99" width="198" height="99"/>
<path d="M78.28,27.68L59.64,72.14H47.48l-9.17-35.48c-0.56-2.18-1.04-2.98-2.73-3.91c-2.77-1.5-7.33-2.91-11.35-3.78l0.27-1.29
	h19.57c2.49,0,4.74,1.66,5.31,4.53l4.84,25.73l11.97-30.26H78.28z M125.91,57.63c0.05-11.73-16.22-12.38-16.11-17.63
	c0.04-1.59,1.55-3.29,4.88-3.72c1.65-0.21,6.19-0.38,11.34,1.99l2.02-9.43c-2.77-1-6.33-1.96-10.76-1.96
	c-11.37,0-19.37,6.04-19.43,14.7c-0.07,6.4,5.71,9.97,10.07,12.1c4.49,2.18,5.99,3.58,5.97,5.52c-0.03,2.98-3.58,4.3-6.88,4.35
	c-5.79,0.09-9.14-1.56-11.81-2.81l-2.09,9.75c2.69,1.23,7.65,2.3,12.79,2.36C117.97,72.84,125.88,66.87,125.91,57.63 M155.94,72.14
	h10.64l-9.29-44.46h-9.81c-2.21,0-4.07,1.28-4.9,3.26l-17.26,41.2h12.08l2.4-6.64h14.76L155.94,72.14z M143.1,56.39l6.06-16.7
	l3.48,16.7H143.1z M94.71,27.68L85.2,72.14H73.7l9.51-44.46H94.71z"/>
<g>
	<path class="st0" d="M46.13,153.83c1.3,0.77,3.33,1.43,5.43,1.43c2.6,0,4.06-1.23,4.06-3.06c0-1.7-1.13-2.7-3.96-3.73
		c-3.73-1.3-6.1-3.3-6.1-6.5c0-3.7,3.06-6.46,7.96-6.46c2.43,0,4.2,0.53,5.36,1.1l-0.97,3.33c-0.83-0.43-2.4-1.07-4.5-1.07
		c-2.6,0-3.7,1.37-3.7,2.7c0,1.73,1.3,2.53,4.3,3.66c3.9,1.5,5.76,3.46,5.76,6.66c0,3.63-2.73,6.73-8.49,6.73
		c-2.4,0-4.86-0.67-6.1-1.4L46.13,153.83z"/>
	<path class="st0" d="M75.71,148.33h-8.46v6.6h9.46v3.36H63.15v-22.45h13.06v3.36h-8.96v5.8h8.46V148.33z"/>
	<path class="st0" d="M96.06,157.63c-0.97,0.47-3.1,1-5.83,1c-7.13,0-11.46-4.46-11.46-11.29c0-7.39,5.16-11.83,12.02-11.83
		c2.7,0,4.6,0.53,5.43,0.97l-0.87,3.26c-1.07-0.47-2.56-0.87-4.4-0.87c-4.56,0-7.86,2.87-7.86,8.26c0,4.93,2.86,8.06,7.83,8.06
		c1.63,0,3.36-0.33,4.46-0.8L96.06,157.63z"/>
	<path class="st0" d="M103.3,135.84v13.09c0,4.4,1.83,6.43,4.6,6.43c2.96,0,4.73-2.03,4.73-6.43v-13.09h4.1v12.82
		c0,6.93-3.56,9.99-8.96,9.99c-5.2,0-8.56-2.9-8.56-9.96v-12.86H103.3z"/>
	<path class="st0" d="M121.09,136.18c1.56-0.3,3.83-0.5,6.2-0.5c3.23,0,5.4,0.53,6.93,1.8c1.23,1.03,1.93,2.6,1.93,4.53
		c0,2.9-1.96,4.86-4.1,5.6v0.1c1.63,0.6,2.6,2.17,3.13,4.33c0.73,2.8,1.33,5.4,1.77,6.26h-4.2c-0.33-0.67-0.9-2.5-1.5-5.3
		c-0.67-2.93-1.7-3.86-4.03-3.93h-2.07v9.23h-4.06V136.18z M125.15,146.07h2.43c2.77,0,4.46-1.47,4.46-3.7c0-2.43-1.7-3.6-4.36-3.6
		c-1.3,0-2.13,0.1-2.53,0.2V146.07z"/>
	<path class="st0" d="M152.27,148.33h-8.46v6.6h9.46v3.36h-13.56v-22.45h13.06v3.36h-8.96v5.8h8.46V148.33z"/>
</g>
</svg>
