<svg width="1224" height="792" viewBox="0 0 1224 792" fill="none" xmlns="http://www.w3.org/2000/svg">
<path d="M469.237 211.738L314.323 581.327H213.258L137.061 286.346C132.405 268.159 128.406 261.531 114.328 253.862C91.3762 241.373 53.4147 229.705 20 222.42L22.3008 211.683H184.992C205.698 211.683 224.378 225.487 229.089 249.37L269.351 463.28L368.828 211.738H469.237ZM865.228 460.65C865.612 363.09 730.31 357.722 731.241 314.173C731.515 300.917 744.168 286.839 771.777 283.223C785.471 281.416 823.214 280.046 866.05 299.766L882.812 221.379C859.806 212.998 830.225 205 793.359 205C698.867 205 632.366 255.232 631.764 327.21C631.161 380.4 679.256 410.09 715.465 427.783C752.714 445.915 765.203 457.528 765.039 473.687C764.82 498.502 735.349 509.403 707.851 509.841C659.755 510.608 631.873 496.859 609.633 486.506L592.323 567.468C614.673 577.711 655.866 586.64 698.648 587.078C799.221 587.078 864.9 537.449 865.228 460.65ZM1114.74 581.327H1203.16L1125.97 211.738H1044.35C1026 211.738 1010.56 222.42 1003.65 238.853L860.244 581.327H960.652L980.591 526.11H1103.24L1114.74 581.327ZM1008.09 450.352L1058.43 311.544L1087.41 450.352H1008.09ZM605.854 211.738L526.809 581.327H431.22L510.32 211.738H605.854Z" fill="black"/>
</svg>
